<!DOCTYPE svg PUBLIC "-//W3C//DTD SVG 1.1//EN" "http://www.w3.org/Graphics/SVG/1.1/DTD/svg11.dtd">
<!-- Uploaded to: SVG Repo, www.svgrepo.com, Transformed by: SVG Repo Mixer Tools -->
<svg fill="#700995" width="256px" height="256px" viewBox="0 0 256 256" id="Flat" xmlns="http://www.w3.org/2000/svg" stroke="#700995">
<g id="SVGRepo_bgCarrier" stroke-width="0"/>
<g id="SVGRepo_tracerCarrier" stroke-linecap="round" stroke-linejoin="round" stroke="#CCCCCC" stroke-width="2.048"/>
<g id="SVGRepo_iconCarrier"> <g opacity="0.2"> <rect x="48" y="48" width="64" height="64"/> </g> <g opacity="0.2"> <rect x="144" y="48" width="64" height="64"/> </g> <g opacity="0.2"> <rect x="48" y="144" width="64" height="64"/> </g> <g opacity="0.2"> <rect x="144" y="144" width="64" height="64"/> </g> <g> <path d="M208,136H144a8.00024,8.00024,0,0,0-8,8v64a8.00008,8.00008,0,0,0,8,8h64a8.00008,8.00008,0,0,0,8-8V144A8.00024,8.00024,0,0,0,208,136Zm-8,64H152V152h48Z"/> <path d="M112,40H48a8.00024,8.00024,0,0,0-8,8v64a8.00024,8.00024,0,0,0,8,8h64a8.00024,8.00024,0,0,0,8-8V48A8.00024,8.00024,0,0,0,112,40Zm-8,64H56V56h48Z"/> <path d="M208,40H144a8.00024,8.00024,0,0,0-8,8v64a8.00024,8.00024,0,0,0,8,8h64a8.00024,8.00024,0,0,0,8-8V48A8.00024,8.00024,0,0,0,208,40Zm-8,64H152V56h48Z"/> <path d="M112,136H48a8.00024,8.00024,0,0,0-8,8v64a8.00008,8.00008,0,0,0,8,8h64a8.00008,8.00008,0,0,0,8-8V144A8.00024,8.00024,0,0,0,112,136Zm-8,64H56V152h48Z"/> </g> </g>
</svg>